{
    "asset" : {
        "generator" : "Khronos glTF Blender I/O v1.8.19",
        "version" : "2.0"
    },
    "scene" : 1,
    "scenes" : [
        {
            "extras" : {
                "ats_settings" : {
                    "num_tiles" : [
                        10,
                        6
                    ],
                    "threads_error" : 0,
                    "prev_engine" : "CYCLES",
                    "prev_device" : "GPU",
                    "prev_border" : 0,
                    "prev_threads" : 1,
                    "prev_choice" : "256",
                    "prev_res" : [
                        2560,
                        1440
                    ],
                    "prev_border_res" : [
                        0.0,
                        0.0,
                        1.0,
                        1.0
                    ],
                    "prev_actual_tile_size" : [
                        256,
                        240
                    ],
                    "first_run" : 0
                },
                "Create_Type" : 0,
                "skinify" : {
                    "connect_mesh" : 0,
                    "connect_parents" : 0,
                    "generate_all" : 0,
                    "thickness" : 0.800000011920929,
                    "finger_thickness" : 0.25,
                    "apply_mod" : 1,
                    "parent_armature" : 1,
                    "sub_level" : 1
                },
                "SimpleBake_Props" : {
                    "bake_objects_show" : 1,
                    "first_texture_show" : 0,
                    "objects_list" : [
                        {
                            "obj_point" : {
                                "name" : "HP_full.001",
                                "type" : "Object"
                            },
                            "name" : "HP_full.001"
                        }
                    ],
                    "presets_show" : 1,
                    "presets_list" : [
                        {
                            "name" : "newbed"
                        },
                        {
                            "name" : "DRMNA_1"
                        }
                    ],
                    "pbr_settings_show" : 1,
                    "selected_s2a" : 1,
                    "targetobj" : {
                        "name" : "01_LP_UV_full",
                        "type" : "Object"
                    },
                    "selected_col" : 1,
                    "apply_col_man_to_col" : 0,
                    "selected_normal" : 1,
                    "export_show" : 1,
                    "textures_show" : 1,
                    "imgwidth" : 2048,
                    "outputwidth" : 2048,
                    "imgheight" : 2048,
                    "outputheight" : 2048,
                    "uv_show" : 1,
                    "prefer_existing_sbmap" : 0,
                    "restore_orig_uv_map" : 0,
                    "total_bake_images_number" : 5,
                    "fg_status_message" : "No channel packing",
                    "targetobj_cycles" : null,
                    "current_bake_image_number" : 5,
                    "percent_complete" : 100,
                    "objects_list_index" : -1,
                    "global_mode" : 0,
                    "tex_per_mat" : 0,
                    "expand_mat_uvs" : 0,
                    "cycles_s2a" : 0,
                    "showtips" : 0,
                    "selected_metal" : 1,
                    "selected_rough" : 1,
                    "rough_glossy_switch" : 0,
                    "ray_distance" : 0.0,
                    "normal_format_switch" : 0,
                    "other_show" : 1,
                    "channelpacking_show" : 0,
                    "batch_name" : "Leo",
                    "cage_extrusion" : 0.009999999776482582,
                    "merged_bake" : 0,
                    "save_bakes_external" : 0,
                    "export_path" : "//../../../media/skleembof/Gill/PORTFOLIO/Things/workpieces/Microscope/Exports/",
                    "export_file_format" : 0,
                    "everything_16bit" : 0,
                    "use_alpha" : 0,
                    "cp_name" : "Microscope_GLTF_Pack",
                    "cptex_R" : 0,
                    "cptex_G" : 3,
                    "cptex_B" : 2,
                    "cp_list" : [],
                    "cp_list_index" : 0,
                    "channelpackfileformat" : 2,
                    "cptex_A" : 0,
                    "export_folder_per_object" : 0,
                    "uv_mode" : 0,
                    "copy_and_apply" : 0,
                    "hide_source_objects" : 0,
                    "create_glTF_node" : 0,
                    "specials_show" : 1,
                    "selected_ao" : 1,
                    "preset_name" : "DRMNA_1",
                    "presets_list_index" : 1
                },
                "UVPackerProps" : {
                    "uvp_stats" : "0.52% \u00a6 0.25s",
                    "uvp_engine" : 1,
                    "uvp_width" : 4096,
                    "uvp_height" : 4096,
                    "uvp_channel_name" : "UV-Packer",
                    "uvp_create_channel" : 1,
                    "uvp_combine" : 0
                },
                "td" : {
                    "uv_space" : "1.1522 %",
                    "density" : "1.280",
                    "set_method" : 0,
                    "density_set" : "1.28"
                },
                "uvp2_props" : {},
                "uvpm3_props" : {
                    "scripted_props" : {},
                    "active_main_mode_id" : 3,
                    "island_scale_limit_enable" : 0,
                    "lock_overlapping_enable" : 1,
                    "heuristic_enable" : 1,
                    "advanced_heuristic" : 0,
                    "simi_check_vertices" : 1,
                    "simi_threshold" : 0.10000000149011612,
                    "simi_adjust_scale" : 1,
                    "align_priority_enable" : 1,
                    "simi_correct_vertices" : 1,
                    "simi_vertex_threshold" : 0.0,
                    "lock_overlapping_mode" : 2,
                    "fixed_scale" : 0,
                    "auto_group_options" : {
                        "base" : {}
                    },
                    "group_method" : 4,
                    "grouping_schemes" : [
                        {
                            "name" : "Scheme",
                            "uuid" : "e2a3f0e6fc934625abd3d444eb411911",
                            "groups" : [
                                {
                                    "name" : "G0",
                                    "num" : 0,
                                    "color" : [
                                        0.0,
                                        0.0,
                                        1.0
                                    ],
                                    "active_target_box_idx" : 0,
                                    "tdensity_cluster" : 0,
                                    "tile_count" : 1,
                                    "overrides" : {
                                        "override_global_options" : 0,
                                        "override_rotation_enable" : 0,
                                        "rotation_enable" : 1,
                                        "override_pre_rotation_disable" : 0,
                                        "pre_rotation_disable" : 0,
                                        "override_rotation_step" : 0,
                                        "rotation_step" : 90,
                                        "override_pixel_margin" : 0,
                                        "pixel_margin" : 5,
                                        "override_pixel_padding" : 0,
                                        "pixel_padding" : 0,
                                        "override_extra_pixel_margin_to_others" : 0,
                                        "extra_pixel_margin_to_others" : 0,
                                        "override_pixel_margin_tex_size" : 0,
                                        "pixel_margin_tex_size" : 1024
                                    },
                                    "target_boxes" : [
                                        {
                                            "p1_x" : 0.0,
                                            "p2_x" : 1.0,
                                            "p1_y" : 0.0,
                                            "p2_y" : 1.0
                                        }
                                    ]
                                },
                                {
                                    "name" : "labels_lens",
                                    "num" : 1,
                                    "color" : [
                                        1.0,
                                        1.0,
                                        0.0
                                    ],
                                    "active_target_box_idx" : 0,
                                    "tdensity_cluster" : 2,
                                    "tile_count" : 1,
                                    "overrides" : {
                                        "override_global_options" : 0,
                                        "override_rotation_enable" : 0,
                                        "rotation_enable" : 1,
                                        "override_pre_rotation_disable" : 0,
                                        "pre_rotation_disable" : 0,
                                        "override_rotation_step" : 0,
                                        "rotation_step" : 90,
                                        "override_pixel_margin" : 0,
                                        "pixel_margin" : 5,
                                        "override_pixel_padding" : 0,
                                        "pixel_padding" : 0,
                                        "override_extra_pixel_margin_to_others" : 0,
                                        "extra_pixel_margin_to_others" : 0,
                                        "override_pixel_margin_tex_size" : 0,
                                        "pixel_margin_tex_size" : 1024
                                    },
                                    "target_boxes" : [
                                        {
                                            "p1_x" : 1.0,
                                            "p2_x" : 2.0,
                                            "p1_y" : 0.0,
                                            "p2_y" : 1.0
                                        }
                                    ]
                                },
                                {
                                    "name" : "base",
                                    "num" : 2,
                                    "color" : [
                                        0.0,
                                        1.0,
                                        1.0
                                    ],
                                    "active_target_box_idx" : 0,
                                    "tdensity_cluster" : 1,
                                    "tile_count" : 1,
                                    "overrides" : {
                                        "override_global_options" : 0,
                                        "override_rotation_enable" : 0,
                                        "rotation_enable" : 1,
                                        "override_pre_rotation_disable" : 0,
                                        "pre_rotation_disable" : 0,
                                        "override_rotation_step" : 0,
                                        "rotation_step" : 90,
                                        "override_pixel_margin" : 0,
                                        "pixel_margin" : 5,
                                        "override_pixel_padding" : 0,
                                        "pixel_padding" : 0,
                                        "override_extra_pixel_margin_to_others" : 0,
                                        "extra_pixel_margin_to_others" : 0,
                                        "override_pixel_margin_tex_size" : 0,
                                        "pixel_margin_tex_size" : 1024
                                    },
                                    "target_boxes" : [
                                        {
                                            "p1_x" : 2.0,
                                            "p2_x" : 3.0,
                                            "p1_y" : 0.0,
                                            "p2_y" : 1.0
                                        }
                                    ]
                                },
                                {
                                    "name" : "neck",
                                    "num" : 3,
                                    "color" : [
                                        0.0,
                                        1.0,
                                        0.0
                                    ],
                                    "active_target_box_idx" : 0,
                                    "tdensity_cluster" : 1,
                                    "tile_count" : 1,
                                    "overrides" : {
                                        "override_global_options" : 0,
                                        "override_rotation_enable" : 0,
                                        "rotation_enable" : 1,
                                        "override_pre_rotation_disable" : 0,
                                        "pre_rotation_disable" : 0,
                                        "override_rotation_step" : 0,
                                        "rotation_step" : 90,
                                        "override_pixel_margin" : 0,
                                        "pixel_margin" : 5,
                                        "override_pixel_padding" : 0,
                                        "pixel_padding" : 0,
                                        "override_extra_pixel_margin_to_others" : 0,
                                        "extra_pixel_margin_to_others" : 0,
                                        "override_pixel_margin_tex_size" : 0,
                                        "pixel_margin_tex_size" : 1024
                                    },
                                    "target_boxes" : [
                                        {
                                            "p1_x" : 3.0,
                                            "p2_x" : 4.0,
                                            "p1_y" : 0.0,
                                            "p2_y" : 1.0
                                        }
                                    ]
                                },
                                {
                                    "name" : "head",
                                    "num" : 4,
                                    "color" : [
                                        1.0,
                                        0.25,
                                        0.0
                                    ],
                                    "active_target_box_idx" : 0,
                                    "tdensity_cluster" : 1,
                                    "tile_count" : 1,
                                    "overrides" : {
                                        "override_global_options" : 0,
                                        "override_rotation_enable" : 0,
                                        "rotation_enable" : 1,
                                        "override_pre_rotation_disable" : 0,
                                        "pre_rotation_disable" : 0,
                                        "override_rotation_step" : 0,
                                        "rotation_step" : 90,
                                        "override_pixel_margin" : 0,
                                        "pixel_margin" : 5,
                                        "override_pixel_padding" : 0,
                                        "pixel_padding" : 0,
                                        "override_extra_pixel_margin_to_others" : 0,
                                        "extra_pixel_margin_to_others" : 0,
                                        "override_pixel_margin_tex_size" : 0,
                                        "pixel_margin_tex_size" : 1024
                                    },
                                    "target_boxes" : [
                                        {
                                            "p1_x" : 4.0,
                                            "p2_x" : 5.0,
                                            "p1_y" : 0.0,
                                            "p2_y" : 1.0
                                        }
                                    ]
                                },
                                {
                                    "name" : "bed",
                                    "num" : 5,
                                    "color" : [
                                        1.0,
                                        0.0,
                                        0.25
                                    ],
                                    "active_target_box_idx" : 0,
                                    "tdensity_cluster" : 4,
                                    "tile_count" : 1,
                                    "overrides" : {
                                        "override_global_options" : 0,
                                        "override_rotation_enable" : 0,
                                        "rotation_enable" : 1,
                                        "override_pre_rotation_disable" : 0,
                                        "pre_rotation_disable" : 0,
                                        "override_rotation_step" : 0,
                                        "rotation_step" : 90,
                                        "override_pixel_margin" : 0,
                                        "pixel_margin" : 5,
                                        "override_pixel_padding" : 0,
                                        "pixel_padding" : 0,
                                        "override_extra_pixel_margin_to_others" : 0,
                                        "extra_pixel_margin_to_others" : 0,
                                        "override_pixel_margin_tex_size" : 0,
                                        "pixel_margin_tex_size" : 1024
                                    },
                                    "target_boxes" : [
                                        {
                                            "p1_x" : 5.0,
                                            "p2_x" : 6.0,
                                            "p1_y" : 0.0,
                                            "p2_y" : 1.0
                                        }
                                    ]
                                }
                            ],
                            "options" : {
                                "base" : {},
                                "tdensity_policy" : 2
                            },
                            "active_group_idx" : 5
                        }
                    ],
                    "active_grouping_scheme_idx" : 0,
                    "rotation_step" : 90,
                    "lock_groups_enable" : 0
                }
            },
            "name" : "Scene"
        },
        {
            "extras" : {
                "uvpm3_props" : {
                    "scripted_props" : {}
                }
            },
            "name" : "Scene.001",
            "nodes" : [
                0
            ]
        }
    ],
    "nodes" : [
        {
            "extras" : {
                "SB_uv_used_for_bake" : "SimpleBake"
            },
            "mesh" : 0,
            "name" : "01_LP_UV_full.003"
        }
    ],
    "materials" : [
        {
            "doubleSided" : true,
            "name" : "GLTF_baked.001",
            "normalTexture" : {
                "index" : 0
            },
            "pbrMetallicRoughness" : {
                "baseColorTexture" : {
                    "index" : 1
                },
                "metallicRoughnessTexture" : {
                    "index" : 2
                }
            }
        }
    ],
    "meshes" : [
        {
            "name" : "Cylinder.007",
            "primitives" : [
                {
                    "attributes" : {
                        "POSITION" : 0,
                        "NORMAL" : 1,
                        "TEXCOORD_0" : 2
                    },
                    "indices" : 3,
                    "material" : 0
                }
            ]
        }
    ],
    "textures" : [
        {
            "sampler" : 0,
            "source" : 0
        },
        {
            "sampler" : 0,
            "source" : 1
        },
        {
            "sampler" : 0,
            "source" : 2
        }
    ],
    "images" : [
        {
            "bufferView" : 4,
            "mimeType" : "image/jpeg",
            "name" : "cleaned_Normal"
        },
        {
            "bufferView" : 5,
            "mimeType" : "image/jpeg",
            "name" : "01_LP_UV_full_Leo_PBR StoA_Diffuse"
        },
        {
            "bufferView" : 6,
            "mimeType" : "image/jpeg",
            "name" : "rm_packedPBR_GLTF"
        }
    ],
    "accessors" : [
        {
            "bufferView" : 0,
            "componentType" : 5126,
            "count" : 7449,
            "max" : [
                0.6493728756904602,
                2.097970485687256,
                0.5972492098808289
            ],
            "min" : [
                -0.5092393755912781,
                -0.00010460615158081055,
                -0.5920175909996033
            ],
            "type" : "VEC3"
        },
        {
            "bufferView" : 1,
            "componentType" : 5126,
            "count" : 7449,
            "type" : "VEC3"
        },
        {
            "bufferView" : 2,
            "componentType" : 5126,
            "count" : 7449,
            "type" : "VEC2"
        },
        {
            "bufferView" : 3,
            "componentType" : 5123,
            "count" : 27153,
            "type" : "SCALAR"
        }
    ],
    "bufferViews" : [
        {
            "buffer" : 0,
            "byteLength" : 89388,
            "byteOffset" : 0
        },
        {
            "buffer" : 0,
            "byteLength" : 89388,
            "byteOffset" : 89388
        },
        {
            "buffer" : 0,
            "byteLength" : 59592,
            "byteOffset" : 178776
        },
        {
            "buffer" : 0,
            "byteLength" : 54306,
            "byteOffset" : 238368
        },
        {
            "buffer" : 0,
            "byteLength" : 731588,
            "byteOffset" : 292676
        },
        {
            "buffer" : 0,
            "byteLength" : 303101,
            "byteOffset" : 1024264
        },
        {
            "buffer" : 0,
            "byteLength" : 790256,
            "byteOffset" : 1327368
        }
    ],
    "samplers" : [
        {
            "magFilter" : 9729,
            "minFilter" : 9987
        }
    ],
    "buffers" : [
        {
            "byteLength" : 2117624,
            "uri" : "data:application/octet-stream;base64,"
        }
    ]
}
